<mxfile host="app.diagrams.net" modified="2022-08-31T21:07:20.500Z" agent="5.0 (Windows NT 10.0; Win64; x64) AppleWebKit/537.36 (KHTML, like Gecko) Chrome/104.0.0.0 Safari/537.36" etag="RuFLfUNV_6OS2AU2ZqZY" version="20.2.7" type="github">
  <diagram id="nLGwyhCtDAyRvd3ZR90I" name="Page-1">
    <mxGraphModel dx="1689" dy="831" grid="1" gridSize="10" guides="1" tooltips="1" connect="1" arrows="1" fold="1" page="1" pageScale="1" pageWidth="850" pageHeight="1100" math="0" shadow="0">
      <root>
        <mxCell id="0" />
        <mxCell id="1" parent="0" />
        <mxCell id="YkZ0qXxGM3phLDCoXLKF-1" value="Actor" style="shape=table;startSize=30;container=1;collapsible=1;childLayout=tableLayout;fixedRows=1;rowLines=0;fontStyle=1;align=center;resizeLast=1;" vertex="1" parent="1">
          <mxGeometry x="254" y="725" width="160" height="150" as="geometry" />
        </mxCell>
        <mxCell id="YkZ0qXxGM3phLDCoXLKF-2" value="" style="shape=tableRow;horizontal=0;startSize=0;swimlaneHead=0;swimlaneBody=0;fillColor=none;collapsible=0;dropTarget=0;points=[[0,0.5],[1,0.5]];portConstraint=eastwest;top=0;left=0;right=0;bottom=1;" vertex="1" parent="YkZ0qXxGM3phLDCoXLKF-1">
          <mxGeometry y="30" width="160" height="30" as="geometry" />
        </mxCell>
        <mxCell id="YkZ0qXxGM3phLDCoXLKF-3" value="PK" style="shape=partialRectangle;connectable=0;fillColor=none;top=0;left=0;bottom=0;right=0;fontStyle=1;overflow=hidden;" vertex="1" parent="YkZ0qXxGM3phLDCoXLKF-2">
          <mxGeometry width="30" height="30" as="geometry">
            <mxRectangle width="30" height="30" as="alternateBounds" />
          </mxGeometry>
        </mxCell>
        <mxCell id="YkZ0qXxGM3phLDCoXLKF-4" value="Actor_ID" style="shape=partialRectangle;connectable=0;fillColor=none;top=0;left=0;bottom=0;right=0;align=left;spacingLeft=6;fontStyle=5;overflow=hidden;" vertex="1" parent="YkZ0qXxGM3phLDCoXLKF-2">
          <mxGeometry x="30" width="130" height="30" as="geometry">
            <mxRectangle width="130" height="30" as="alternateBounds" />
          </mxGeometry>
        </mxCell>
        <mxCell id="YkZ0qXxGM3phLDCoXLKF-5" value="" style="shape=tableRow;horizontal=0;startSize=0;swimlaneHead=0;swimlaneBody=0;fillColor=none;collapsible=0;dropTarget=0;points=[[0,0.5],[1,0.5]];portConstraint=eastwest;top=0;left=0;right=0;bottom=0;" vertex="1" parent="YkZ0qXxGM3phLDCoXLKF-1">
          <mxGeometry y="60" width="160" height="30" as="geometry" />
        </mxCell>
        <mxCell id="YkZ0qXxGM3phLDCoXLKF-6" value="" style="shape=partialRectangle;connectable=0;fillColor=none;top=0;left=0;bottom=0;right=0;editable=1;overflow=hidden;" vertex="1" parent="YkZ0qXxGM3phLDCoXLKF-5">
          <mxGeometry width="30" height="30" as="geometry">
            <mxRectangle width="30" height="30" as="alternateBounds" />
          </mxGeometry>
        </mxCell>
        <mxCell id="YkZ0qXxGM3phLDCoXLKF-7" value="name" style="shape=partialRectangle;connectable=0;fillColor=none;top=0;left=0;bottom=0;right=0;align=left;spacingLeft=6;overflow=hidden;" vertex="1" parent="YkZ0qXxGM3phLDCoXLKF-5">
          <mxGeometry x="30" width="130" height="30" as="geometry">
            <mxRectangle width="130" height="30" as="alternateBounds" />
          </mxGeometry>
        </mxCell>
        <mxCell id="YkZ0qXxGM3phLDCoXLKF-8" value="" style="shape=tableRow;horizontal=0;startSize=0;swimlaneHead=0;swimlaneBody=0;fillColor=none;collapsible=0;dropTarget=0;points=[[0,0.5],[1,0.5]];portConstraint=eastwest;top=0;left=0;right=0;bottom=0;" vertex="1" parent="YkZ0qXxGM3phLDCoXLKF-1">
          <mxGeometry y="90" width="160" height="30" as="geometry" />
        </mxCell>
        <mxCell id="YkZ0qXxGM3phLDCoXLKF-9" value="" style="shape=partialRectangle;connectable=0;fillColor=none;top=0;left=0;bottom=0;right=0;editable=1;overflow=hidden;" vertex="1" parent="YkZ0qXxGM3phLDCoXLKF-8">
          <mxGeometry width="30" height="30" as="geometry">
            <mxRectangle width="30" height="30" as="alternateBounds" />
          </mxGeometry>
        </mxCell>
        <mxCell id="YkZ0qXxGM3phLDCoXLKF-10" value="role" style="shape=partialRectangle;connectable=0;fillColor=none;top=0;left=0;bottom=0;right=0;align=left;spacingLeft=6;overflow=hidden;" vertex="1" parent="YkZ0qXxGM3phLDCoXLKF-8">
          <mxGeometry x="30" width="130" height="30" as="geometry">
            <mxRectangle width="130" height="30" as="alternateBounds" />
          </mxGeometry>
        </mxCell>
        <mxCell id="YkZ0qXxGM3phLDCoXLKF-11" value="" style="shape=tableRow;horizontal=0;startSize=0;swimlaneHead=0;swimlaneBody=0;fillColor=none;collapsible=0;dropTarget=0;points=[[0,0.5],[1,0.5]];portConstraint=eastwest;top=0;left=0;right=0;bottom=0;" vertex="1" parent="YkZ0qXxGM3phLDCoXLKF-1">
          <mxGeometry y="120" width="160" height="30" as="geometry" />
        </mxCell>
        <mxCell id="YkZ0qXxGM3phLDCoXLKF-12" value="" style="shape=partialRectangle;connectable=0;fillColor=none;top=0;left=0;bottom=0;right=0;editable=1;overflow=hidden;" vertex="1" parent="YkZ0qXxGM3phLDCoXLKF-11">
          <mxGeometry width="30" height="30" as="geometry">
            <mxRectangle width="30" height="30" as="alternateBounds" />
          </mxGeometry>
        </mxCell>
        <mxCell id="YkZ0qXxGM3phLDCoXLKF-13" value="country" style="shape=partialRectangle;connectable=0;fillColor=none;top=0;left=0;bottom=0;right=0;align=left;spacingLeft=6;overflow=hidden;" vertex="1" parent="YkZ0qXxGM3phLDCoXLKF-11">
          <mxGeometry x="30" width="130" height="30" as="geometry">
            <mxRectangle width="130" height="30" as="alternateBounds" />
          </mxGeometry>
        </mxCell>
        <mxCell id="YkZ0qXxGM3phLDCoXLKF-16" value="" style="edgeStyle=orthogonalEdgeStyle;rounded=0;orthogonalLoop=1;jettySize=auto;html=1;" edge="1" parent="1" source="YkZ0qXxGM3phLDCoXLKF-14">
          <mxGeometry relative="1" as="geometry">
            <mxPoint x="299" y="290" as="targetPoint" />
          </mxGeometry>
        </mxCell>
        <mxCell id="YkZ0qXxGM3phLDCoXLKF-18" value="" style="edgeStyle=orthogonalEdgeStyle;rounded=0;orthogonalLoop=1;jettySize=auto;html=1;" edge="1" parent="1" source="YkZ0qXxGM3phLDCoXLKF-14">
          <mxGeometry relative="1" as="geometry">
            <mxPoint x="359" y="290" as="targetPoint" />
            <Array as="points">
              <mxPoint x="329" y="290" />
              <mxPoint x="329" y="290" />
            </Array>
          </mxGeometry>
        </mxCell>
        <mxCell id="YkZ0qXxGM3phLDCoXLKF-14" value="&lt;span style=&quot;font-family: &amp;quot;Lato Extended&amp;quot;, Lato, &amp;quot;Helvetica Neue&amp;quot;, Helvetica, Arial, sans-serif; font-size: 16px; font-style: normal; font-variant-ligatures: normal; font-variant-caps: normal; letter-spacing: normal; orphans: 2; text-indent: 0px; text-transform: none; widows: 2; word-spacing: 0px; -webkit-text-stroke-width: 0px; background-color: rgb(255, 255, 255); text-decoration-thickness: initial; text-decoration-style: initial; text-decoration-color: initial; float: none; display: inline !important;&quot;&gt;The company&amp;nbsp;&lt;/span&gt;&lt;span style=&quot;font-family: &amp;quot;Lato Extended&amp;quot;, Lato, &amp;quot;Helvetica Neue&amp;quot;, Helvetica, Arial, sans-serif; font-size: 16px; background-color: rgb(255, 255, 255);&quot;&gt;NetFlicks (NF)&lt;/span&gt;" style="text;whiteSpace=wrap;html=1;fillColor=#ffe6cc;strokeColor=#d79b00;align=center;fontStyle=1;fontColor=#0000FF;" vertex="1" parent="1">
          <mxGeometry x="49" y="270" width="230" height="40" as="geometry" />
        </mxCell>
        <mxCell id="YkZ0qXxGM3phLDCoXLKF-17" value="&#xa;&lt;span style=&quot;color: rgb(0, 0, 0); font-family: Helvetica; font-size: 12px; font-style: normal; font-variant-ligatures: normal; font-variant-caps: normal; letter-spacing: normal; orphans: 2; text-indent: 0px; text-transform: none; widows: 2; word-spacing: 0px; -webkit-text-stroke-width: 0px; background-color: rgb(248, 249, 250); text-decoration-thickness: initial; text-decoration-style: initial; text-decoration-color: initial; float: none; display: inline !important;&quot;&gt;Aims to create a database to manage the operations of their online movie streaming service&lt;/span&gt;&#xa;&#xa;" style="ellipse;whiteSpace=wrap;html=1;align=center;verticalAlign=top;fillColor=#ffe6cc;strokeColor=#d79b00;gradientColor=none;fontStyle=1" vertex="1" parent="1">
          <mxGeometry x="341" y="260" width="460" height="60" as="geometry" />
        </mxCell>
        <mxCell id="YkZ0qXxGM3phLDCoXLKF-59" value="Film" style="shape=table;startSize=30;container=1;collapsible=1;childLayout=tableLayout;fixedRows=1;rowLines=0;fontStyle=1;align=center;resizeLast=1;" vertex="1" parent="1">
          <mxGeometry x="324" y="420" width="155" height="140" as="geometry" />
        </mxCell>
        <mxCell id="YkZ0qXxGM3phLDCoXLKF-60" value="" style="shape=tableRow;horizontal=0;startSize=0;swimlaneHead=0;swimlaneBody=0;fillColor=none;collapsible=0;dropTarget=0;points=[[0,0.5],[1,0.5]];portConstraint=eastwest;top=0;left=0;right=0;bottom=1;" vertex="1" parent="YkZ0qXxGM3phLDCoXLKF-59">
          <mxGeometry y="30" width="155" height="30" as="geometry" />
        </mxCell>
        <mxCell id="YkZ0qXxGM3phLDCoXLKF-61" value="PK" style="shape=partialRectangle;connectable=0;fillColor=none;top=0;left=0;bottom=0;right=0;fontStyle=1;overflow=hidden;" vertex="1" parent="YkZ0qXxGM3phLDCoXLKF-60">
          <mxGeometry width="30" height="30" as="geometry">
            <mxRectangle width="30" height="30" as="alternateBounds" />
          </mxGeometry>
        </mxCell>
        <mxCell id="YkZ0qXxGM3phLDCoXLKF-62" value="Film_ID" style="shape=partialRectangle;connectable=0;fillColor=none;top=0;left=0;bottom=0;right=0;align=left;spacingLeft=6;fontStyle=5;overflow=hidden;" vertex="1" parent="YkZ0qXxGM3phLDCoXLKF-60">
          <mxGeometry x="30" width="125" height="30" as="geometry">
            <mxRectangle width="125" height="30" as="alternateBounds" />
          </mxGeometry>
        </mxCell>
        <mxCell id="YkZ0qXxGM3phLDCoXLKF-63" value="" style="shape=tableRow;horizontal=0;startSize=0;swimlaneHead=0;swimlaneBody=0;fillColor=none;collapsible=0;dropTarget=0;points=[[0,0.5],[1,0.5]];portConstraint=eastwest;top=0;left=0;right=0;bottom=0;" vertex="1" parent="YkZ0qXxGM3phLDCoXLKF-59">
          <mxGeometry y="60" width="155" height="30" as="geometry" />
        </mxCell>
        <mxCell id="YkZ0qXxGM3phLDCoXLKF-64" value="" style="shape=partialRectangle;connectable=0;fillColor=none;top=0;left=0;bottom=0;right=0;editable=1;overflow=hidden;" vertex="1" parent="YkZ0qXxGM3phLDCoXLKF-63">
          <mxGeometry width="30" height="30" as="geometry">
            <mxRectangle width="30" height="30" as="alternateBounds" />
          </mxGeometry>
        </mxCell>
        <mxCell id="YkZ0qXxGM3phLDCoXLKF-65" value="title" style="shape=partialRectangle;connectable=0;fillColor=none;top=0;left=0;bottom=0;right=0;align=left;spacingLeft=6;overflow=hidden;" vertex="1" parent="YkZ0qXxGM3phLDCoXLKF-63">
          <mxGeometry x="30" width="125" height="30" as="geometry">
            <mxRectangle width="125" height="30" as="alternateBounds" />
          </mxGeometry>
        </mxCell>
        <mxCell id="YkZ0qXxGM3phLDCoXLKF-66" value="" style="shape=tableRow;horizontal=0;startSize=0;swimlaneHead=0;swimlaneBody=0;fillColor=none;collapsible=0;dropTarget=0;points=[[0,0.5],[1,0.5]];portConstraint=eastwest;top=0;left=0;right=0;bottom=0;" vertex="1" parent="YkZ0qXxGM3phLDCoXLKF-59">
          <mxGeometry y="90" width="155" height="30" as="geometry" />
        </mxCell>
        <mxCell id="YkZ0qXxGM3phLDCoXLKF-67" value="" style="shape=partialRectangle;connectable=0;fillColor=none;top=0;left=0;bottom=0;right=0;editable=1;overflow=hidden;" vertex="1" parent="YkZ0qXxGM3phLDCoXLKF-66">
          <mxGeometry width="30" height="30" as="geometry">
            <mxRectangle width="30" height="30" as="alternateBounds" />
          </mxGeometry>
        </mxCell>
        <mxCell id="YkZ0qXxGM3phLDCoXLKF-68" value="rating" style="shape=partialRectangle;connectable=0;fillColor=none;top=0;left=0;bottom=0;right=0;align=left;spacingLeft=6;overflow=hidden;" vertex="1" parent="YkZ0qXxGM3phLDCoXLKF-66">
          <mxGeometry x="30" width="125" height="30" as="geometry">
            <mxRectangle width="125" height="30" as="alternateBounds" />
          </mxGeometry>
        </mxCell>
        <mxCell id="YkZ0qXxGM3phLDCoXLKF-69" value="" style="shape=tableRow;horizontal=0;startSize=0;swimlaneHead=0;swimlaneBody=0;fillColor=none;collapsible=0;dropTarget=0;points=[[0,0.5],[1,0.5]];portConstraint=eastwest;top=0;left=0;right=0;bottom=0;" vertex="1" parent="YkZ0qXxGM3phLDCoXLKF-59">
          <mxGeometry y="120" width="155" height="20" as="geometry" />
        </mxCell>
        <mxCell id="YkZ0qXxGM3phLDCoXLKF-70" value="" style="shape=partialRectangle;connectable=0;fillColor=none;top=0;left=0;bottom=0;right=0;editable=1;overflow=hidden;" vertex="1" parent="YkZ0qXxGM3phLDCoXLKF-69">
          <mxGeometry width="30" height="20" as="geometry">
            <mxRectangle width="30" height="20" as="alternateBounds" />
          </mxGeometry>
        </mxCell>
        <mxCell id="YkZ0qXxGM3phLDCoXLKF-71" value="director" style="shape=partialRectangle;connectable=0;fillColor=none;top=0;left=0;bottom=0;right=0;align=left;spacingLeft=6;overflow=hidden;" vertex="1" parent="YkZ0qXxGM3phLDCoXLKF-69">
          <mxGeometry x="30" width="125" height="20" as="geometry">
            <mxRectangle width="125" height="20" as="alternateBounds" />
          </mxGeometry>
        </mxCell>
        <mxCell id="YkZ0qXxGM3phLDCoXLKF-91" value="Genre" style="shape=table;startSize=30;container=1;collapsible=1;childLayout=tableLayout;fixedRows=1;rowLines=0;fontStyle=1;align=center;resizeLast=1;" vertex="1" parent="1">
          <mxGeometry x="579" y="400" width="115" height="90" as="geometry" />
        </mxCell>
        <mxCell id="YkZ0qXxGM3phLDCoXLKF-92" value="" style="shape=tableRow;horizontal=0;startSize=0;swimlaneHead=0;swimlaneBody=0;fillColor=none;collapsible=0;dropTarget=0;points=[[0,0.5],[1,0.5]];portConstraint=eastwest;top=0;left=0;right=0;bottom=1;" vertex="1" parent="YkZ0qXxGM3phLDCoXLKF-91">
          <mxGeometry y="30" width="115" height="30" as="geometry" />
        </mxCell>
        <mxCell id="YkZ0qXxGM3phLDCoXLKF-93" value="PK" style="shape=partialRectangle;connectable=0;fillColor=none;top=0;left=0;bottom=0;right=0;fontStyle=1;overflow=hidden;" vertex="1" parent="YkZ0qXxGM3phLDCoXLKF-92">
          <mxGeometry width="30" height="30" as="geometry">
            <mxRectangle width="30" height="30" as="alternateBounds" />
          </mxGeometry>
        </mxCell>
        <mxCell id="YkZ0qXxGM3phLDCoXLKF-94" value="Genre_ID" style="shape=partialRectangle;connectable=0;fillColor=none;top=0;left=0;bottom=0;right=0;align=left;spacingLeft=6;fontStyle=5;overflow=hidden;" vertex="1" parent="YkZ0qXxGM3phLDCoXLKF-92">
          <mxGeometry x="30" width="85" height="30" as="geometry">
            <mxRectangle width="85" height="30" as="alternateBounds" />
          </mxGeometry>
        </mxCell>
        <mxCell id="YkZ0qXxGM3phLDCoXLKF-95" value="" style="shape=tableRow;horizontal=0;startSize=0;swimlaneHead=0;swimlaneBody=0;fillColor=none;collapsible=0;dropTarget=0;points=[[0,0.5],[1,0.5]];portConstraint=eastwest;top=0;left=0;right=0;bottom=0;" vertex="1" parent="YkZ0qXxGM3phLDCoXLKF-91">
          <mxGeometry y="60" width="115" height="30" as="geometry" />
        </mxCell>
        <mxCell id="YkZ0qXxGM3phLDCoXLKF-96" value="" style="shape=partialRectangle;connectable=0;fillColor=none;top=0;left=0;bottom=0;right=0;editable=1;overflow=hidden;" vertex="1" parent="YkZ0qXxGM3phLDCoXLKF-95">
          <mxGeometry width="30" height="30" as="geometry">
            <mxRectangle width="30" height="30" as="alternateBounds" />
          </mxGeometry>
        </mxCell>
        <mxCell id="YkZ0qXxGM3phLDCoXLKF-97" value="Genre" style="shape=partialRectangle;connectable=0;fillColor=none;top=0;left=0;bottom=0;right=0;align=left;spacingLeft=6;overflow=hidden;" vertex="1" parent="YkZ0qXxGM3phLDCoXLKF-95">
          <mxGeometry x="30" width="85" height="30" as="geometry">
            <mxRectangle width="85" height="30" as="alternateBounds" />
          </mxGeometry>
        </mxCell>
        <mxCell id="YkZ0qXxGM3phLDCoXLKF-107" value="" style="edgeStyle=entityRelationEdgeStyle;fontSize=12;html=1;endArrow=ERoneToMany;startArrow=ERmandOne;rounded=0;fontColor=default;exitX=1;exitY=0.5;exitDx=0;exitDy=0;" edge="1" parent="1" source="YkZ0qXxGM3phLDCoXLKF-63">
          <mxGeometry width="100" height="100" relative="1" as="geometry">
            <mxPoint x="479" y="540" as="sourcePoint" />
            <mxPoint x="579" y="440" as="targetPoint" />
          </mxGeometry>
        </mxCell>
        <mxCell id="YkZ0qXxGM3phLDCoXLKF-126" value="Version" style="shape=table;startSize=30;container=1;collapsible=1;childLayout=tableLayout;fixedRows=1;rowLines=0;fontStyle=1;align=center;resizeLast=1;" vertex="1" parent="1">
          <mxGeometry x="79" y="540" width="155" height="140" as="geometry" />
        </mxCell>
        <mxCell id="YkZ0qXxGM3phLDCoXLKF-127" value="" style="shape=tableRow;horizontal=0;startSize=0;swimlaneHead=0;swimlaneBody=0;fillColor=none;collapsible=0;dropTarget=0;points=[[0,0.5],[1,0.5]];portConstraint=eastwest;top=0;left=0;right=0;bottom=1;" vertex="1" parent="YkZ0qXxGM3phLDCoXLKF-126">
          <mxGeometry y="30" width="155" height="30" as="geometry" />
        </mxCell>
        <mxCell id="YkZ0qXxGM3phLDCoXLKF-128" value="PK" style="shape=partialRectangle;connectable=0;fillColor=none;top=0;left=0;bottom=0;right=0;fontStyle=1;overflow=hidden;" vertex="1" parent="YkZ0qXxGM3phLDCoXLKF-127">
          <mxGeometry width="30" height="30" as="geometry">
            <mxRectangle width="30" height="30" as="alternateBounds" />
          </mxGeometry>
        </mxCell>
        <mxCell id="YkZ0qXxGM3phLDCoXLKF-129" value="Version_ID" style="shape=partialRectangle;connectable=0;fillColor=none;top=0;left=0;bottom=0;right=0;align=left;spacingLeft=6;fontStyle=5;overflow=hidden;" vertex="1" parent="YkZ0qXxGM3phLDCoXLKF-127">
          <mxGeometry x="30" width="125" height="30" as="geometry">
            <mxRectangle width="125" height="30" as="alternateBounds" />
          </mxGeometry>
        </mxCell>
        <mxCell id="YkZ0qXxGM3phLDCoXLKF-130" value="" style="shape=tableRow;horizontal=0;startSize=0;swimlaneHead=0;swimlaneBody=0;fillColor=none;collapsible=0;dropTarget=0;points=[[0,0.5],[1,0.5]];portConstraint=eastwest;top=0;left=0;right=0;bottom=0;" vertex="1" parent="YkZ0qXxGM3phLDCoXLKF-126">
          <mxGeometry y="60" width="155" height="30" as="geometry" />
        </mxCell>
        <mxCell id="YkZ0qXxGM3phLDCoXLKF-131" value="" style="shape=partialRectangle;connectable=0;fillColor=none;top=0;left=0;bottom=0;right=0;editable=1;overflow=hidden;" vertex="1" parent="YkZ0qXxGM3phLDCoXLKF-130">
          <mxGeometry width="30" height="30" as="geometry">
            <mxRectangle width="30" height="30" as="alternateBounds" />
          </mxGeometry>
        </mxCell>
        <mxCell id="YkZ0qXxGM3phLDCoXLKF-132" value="language" style="shape=partialRectangle;connectable=0;fillColor=none;top=0;left=0;bottom=0;right=0;align=left;spacingLeft=6;overflow=hidden;" vertex="1" parent="YkZ0qXxGM3phLDCoXLKF-130">
          <mxGeometry x="30" width="125" height="30" as="geometry">
            <mxRectangle width="125" height="30" as="alternateBounds" />
          </mxGeometry>
        </mxCell>
        <mxCell id="YkZ0qXxGM3phLDCoXLKF-133" value="" style="shape=tableRow;horizontal=0;startSize=0;swimlaneHead=0;swimlaneBody=0;fillColor=none;collapsible=0;dropTarget=0;points=[[0,0.5],[1,0.5]];portConstraint=eastwest;top=0;left=0;right=0;bottom=0;" vertex="1" parent="YkZ0qXxGM3phLDCoXLKF-126">
          <mxGeometry y="90" width="155" height="30" as="geometry" />
        </mxCell>
        <mxCell id="YkZ0qXxGM3phLDCoXLKF-134" value="" style="shape=partialRectangle;connectable=0;fillColor=none;top=0;left=0;bottom=0;right=0;editable=1;overflow=hidden;" vertex="1" parent="YkZ0qXxGM3phLDCoXLKF-133">
          <mxGeometry width="30" height="30" as="geometry">
            <mxRectangle width="30" height="30" as="alternateBounds" />
          </mxGeometry>
        </mxCell>
        <mxCell id="YkZ0qXxGM3phLDCoXLKF-135" value="length" style="shape=partialRectangle;connectable=0;fillColor=none;top=0;left=0;bottom=0;right=0;align=left;spacingLeft=6;overflow=hidden;" vertex="1" parent="YkZ0qXxGM3phLDCoXLKF-133">
          <mxGeometry x="30" width="125" height="30" as="geometry">
            <mxRectangle width="125" height="30" as="alternateBounds" />
          </mxGeometry>
        </mxCell>
        <mxCell id="YkZ0qXxGM3phLDCoXLKF-136" value="" style="shape=tableRow;horizontal=0;startSize=0;swimlaneHead=0;swimlaneBody=0;fillColor=none;collapsible=0;dropTarget=0;points=[[0,0.5],[1,0.5]];portConstraint=eastwest;top=0;left=0;right=0;bottom=0;" vertex="1" parent="YkZ0qXxGM3phLDCoXLKF-126">
          <mxGeometry y="120" width="155" height="20" as="geometry" />
        </mxCell>
        <mxCell id="YkZ0qXxGM3phLDCoXLKF-137" value="" style="shape=partialRectangle;connectable=0;fillColor=none;top=0;left=0;bottom=0;right=0;editable=1;overflow=hidden;" vertex="1" parent="YkZ0qXxGM3phLDCoXLKF-136">
          <mxGeometry width="30" height="20" as="geometry">
            <mxRectangle width="30" height="20" as="alternateBounds" />
          </mxGeometry>
        </mxCell>
        <mxCell id="YkZ0qXxGM3phLDCoXLKF-138" value="features" style="shape=partialRectangle;connectable=0;fillColor=none;top=0;left=0;bottom=0;right=0;align=left;spacingLeft=6;overflow=hidden;" vertex="1" parent="YkZ0qXxGM3phLDCoXLKF-136">
          <mxGeometry x="30" width="125" height="20" as="geometry">
            <mxRectangle width="125" height="20" as="alternateBounds" />
          </mxGeometry>
        </mxCell>
        <mxCell id="YkZ0qXxGM3phLDCoXLKF-139" value="Director" style="shape=table;startSize=30;container=1;collapsible=1;childLayout=tableLayout;fixedRows=1;rowLines=0;fontStyle=1;align=center;resizeLast=1;" vertex="1" parent="1">
          <mxGeometry x="589" y="570" width="155" height="140" as="geometry" />
        </mxCell>
        <mxCell id="YkZ0qXxGM3phLDCoXLKF-140" value="" style="shape=tableRow;horizontal=0;startSize=0;swimlaneHead=0;swimlaneBody=0;fillColor=none;collapsible=0;dropTarget=0;points=[[0,0.5],[1,0.5]];portConstraint=eastwest;top=0;left=0;right=0;bottom=1;" vertex="1" parent="YkZ0qXxGM3phLDCoXLKF-139">
          <mxGeometry y="30" width="155" height="30" as="geometry" />
        </mxCell>
        <mxCell id="YkZ0qXxGM3phLDCoXLKF-141" value="PK" style="shape=partialRectangle;connectable=0;fillColor=none;top=0;left=0;bottom=0;right=0;fontStyle=1;overflow=hidden;" vertex="1" parent="YkZ0qXxGM3phLDCoXLKF-140">
          <mxGeometry width="30" height="30" as="geometry">
            <mxRectangle width="30" height="30" as="alternateBounds" />
          </mxGeometry>
        </mxCell>
        <mxCell id="YkZ0qXxGM3phLDCoXLKF-142" value="Director_ID" style="shape=partialRectangle;connectable=0;fillColor=none;top=0;left=0;bottom=0;right=0;align=left;spacingLeft=6;fontStyle=5;overflow=hidden;" vertex="1" parent="YkZ0qXxGM3phLDCoXLKF-140">
          <mxGeometry x="30" width="125" height="30" as="geometry">
            <mxRectangle width="125" height="30" as="alternateBounds" />
          </mxGeometry>
        </mxCell>
        <mxCell id="YkZ0qXxGM3phLDCoXLKF-143" value="" style="shape=tableRow;horizontal=0;startSize=0;swimlaneHead=0;swimlaneBody=0;fillColor=none;collapsible=0;dropTarget=0;points=[[0,0.5],[1,0.5]];portConstraint=eastwest;top=0;left=0;right=0;bottom=0;" vertex="1" parent="YkZ0qXxGM3phLDCoXLKF-139">
          <mxGeometry y="60" width="155" height="30" as="geometry" />
        </mxCell>
        <mxCell id="YkZ0qXxGM3phLDCoXLKF-144" value="" style="shape=partialRectangle;connectable=0;fillColor=none;top=0;left=0;bottom=0;right=0;editable=1;overflow=hidden;" vertex="1" parent="YkZ0qXxGM3phLDCoXLKF-143">
          <mxGeometry width="30" height="30" as="geometry">
            <mxRectangle width="30" height="30" as="alternateBounds" />
          </mxGeometry>
        </mxCell>
        <mxCell id="YkZ0qXxGM3phLDCoXLKF-145" value="name " style="shape=partialRectangle;connectable=0;fillColor=none;top=0;left=0;bottom=0;right=0;align=left;spacingLeft=6;overflow=hidden;" vertex="1" parent="YkZ0qXxGM3phLDCoXLKF-143">
          <mxGeometry x="30" width="125" height="30" as="geometry">
            <mxRectangle width="125" height="30" as="alternateBounds" />
          </mxGeometry>
        </mxCell>
        <mxCell id="YkZ0qXxGM3phLDCoXLKF-146" value="" style="shape=tableRow;horizontal=0;startSize=0;swimlaneHead=0;swimlaneBody=0;fillColor=none;collapsible=0;dropTarget=0;points=[[0,0.5],[1,0.5]];portConstraint=eastwest;top=0;left=0;right=0;bottom=0;" vertex="1" parent="YkZ0qXxGM3phLDCoXLKF-139">
          <mxGeometry y="90" width="155" height="30" as="geometry" />
        </mxCell>
        <mxCell id="YkZ0qXxGM3phLDCoXLKF-147" value="" style="shape=partialRectangle;connectable=0;fillColor=none;top=0;left=0;bottom=0;right=0;editable=1;overflow=hidden;" vertex="1" parent="YkZ0qXxGM3phLDCoXLKF-146">
          <mxGeometry width="30" height="30" as="geometry">
            <mxRectangle width="30" height="30" as="alternateBounds" />
          </mxGeometry>
        </mxCell>
        <mxCell id="YkZ0qXxGM3phLDCoXLKF-148" value="age" style="shape=partialRectangle;connectable=0;fillColor=none;top=0;left=0;bottom=0;right=0;align=left;spacingLeft=6;overflow=hidden;" vertex="1" parent="YkZ0qXxGM3phLDCoXLKF-146">
          <mxGeometry x="30" width="125" height="30" as="geometry">
            <mxRectangle width="125" height="30" as="alternateBounds" />
          </mxGeometry>
        </mxCell>
        <mxCell id="YkZ0qXxGM3phLDCoXLKF-149" value="" style="shape=tableRow;horizontal=0;startSize=0;swimlaneHead=0;swimlaneBody=0;fillColor=none;collapsible=0;dropTarget=0;points=[[0,0.5],[1,0.5]];portConstraint=eastwest;top=0;left=0;right=0;bottom=0;" vertex="1" parent="YkZ0qXxGM3phLDCoXLKF-139">
          <mxGeometry y="120" width="155" height="20" as="geometry" />
        </mxCell>
        <mxCell id="YkZ0qXxGM3phLDCoXLKF-150" value="" style="shape=partialRectangle;connectable=0;fillColor=none;top=0;left=0;bottom=0;right=0;editable=1;overflow=hidden;" vertex="1" parent="YkZ0qXxGM3phLDCoXLKF-149">
          <mxGeometry width="30" height="20" as="geometry">
            <mxRectangle width="30" height="20" as="alternateBounds" />
          </mxGeometry>
        </mxCell>
        <mxCell id="YkZ0qXxGM3phLDCoXLKF-151" value="country" style="shape=partialRectangle;connectable=0;fillColor=none;top=0;left=0;bottom=0;right=0;align=left;spacingLeft=6;overflow=hidden;" vertex="1" parent="YkZ0qXxGM3phLDCoXLKF-149">
          <mxGeometry x="30" width="125" height="20" as="geometry">
            <mxRectangle width="125" height="20" as="alternateBounds" />
          </mxGeometry>
        </mxCell>
        <mxCell id="YkZ0qXxGM3phLDCoXLKF-152" value="" style="edgeStyle=entityRelationEdgeStyle;fontSize=12;html=1;endArrow=ERzeroToMany;startArrow=ERzeroToOne;rounded=0;fontColor=default;entryX=-0.006;entryY=0.1;entryDx=0;entryDy=0;entryPerimeter=0;exitX=1;exitY=0.5;exitDx=0;exitDy=0;" edge="1" parent="1" source="YkZ0qXxGM3phLDCoXLKF-66" target="YkZ0qXxGM3phLDCoXLKF-146">
          <mxGeometry width="100" height="100" relative="1" as="geometry">
            <mxPoint x="409" y="562" as="sourcePoint" />
            <mxPoint x="489" y="590" as="targetPoint" />
          </mxGeometry>
        </mxCell>
        <mxCell id="YkZ0qXxGM3phLDCoXLKF-153" value="" style="edgeStyle=entityRelationEdgeStyle;fontSize=12;html=1;endArrow=ERoneToMany;startArrow=ERoneToMany;rounded=0;fontColor=default;exitX=1.006;exitY=-0.033;exitDx=0;exitDy=0;exitPerimeter=0;" edge="1" parent="1" source="YkZ0qXxGM3phLDCoXLKF-8" target="YkZ0qXxGM3phLDCoXLKF-69">
          <mxGeometry width="100" height="100" relative="1" as="geometry">
            <mxPoint x="409" y="810" as="sourcePoint" />
            <mxPoint x="429" y="610" as="targetPoint" />
          </mxGeometry>
        </mxCell>
        <mxCell id="YkZ0qXxGM3phLDCoXLKF-155" value="" style="edgeStyle=entityRelationEdgeStyle;fontSize=12;html=1;endArrow=ERmany;rounded=0;fontColor=default;" edge="1" parent="1" target="YkZ0qXxGM3phLDCoXLKF-63">
          <mxGeometry width="100" height="100" relative="1" as="geometry">
            <mxPoint x="234" y="620" as="sourcePoint" />
            <mxPoint x="334" y="520" as="targetPoint" />
          </mxGeometry>
        </mxCell>
        <mxCell id="YkZ0qXxGM3phLDCoXLKF-157" value="&lt;br&gt;&lt;a style=&quot;color: var(--ic-brand-font-color-dark); text-decoration: underline; font-family: &amp;quot;Lato Extended&amp;quot;, Lato, &amp;quot;Helvetica Neue&amp;quot;, Helvetica, Arial, sans-serif; font-size: 18px; font-style: normal; font-variant-ligatures: normal; font-variant-caps: normal; font-weight: 400; letter-spacing: normal; orphans: 2; text-align: left; text-indent: 0px; text-transform: none; widows: 2; word-spacing: 0px; -webkit-text-stroke-width: 0px; background-color: rgb(255, 255, 255);&quot; href=&quot;https://utah.instructure.com/courses/801380/assignments/11192989&quot;&gt;&lt;span style=&quot;overflow: hidden; text-overflow: ellipsis; line-height: inherit; max-width: 280px;&quot; class=&quot;ellipsible ellipsis&quot;&gt;Assignment #1 - Conceptual Modeling&lt;/span&gt;&lt;/a&gt;&lt;br&gt;&lt;div style=&quot;text-align: left;&quot;&gt;&lt;ul style=&quot;padding: 0px; margin: 0px 0px 0px 25px; box-sizing: border-box; font-family: &amp;quot;Lato Extended&amp;quot;, Lato, &amp;quot;Helvetica Neue&amp;quot;, Helvetica, Arial, sans-serif; font-size: 16px; background-color: rgb(255, 255, 255);&quot;&gt;&lt;li style=&quot;box-sizing: border-box;&quot;&gt;Full name - King Loke&lt;/li&gt;&lt;li style=&quot;box-sizing: border-box;&quot;&gt;Submission date - 8/31/2022&lt;/li&gt;&lt;li style=&quot;box-sizing: border-box;&quot;&gt;Unid - 01426303&lt;/li&gt;&lt;li style=&quot;box-sizing: border-box;&quot;&gt;Course name -&amp;nbsp;IS 6420-001 Fall 2022&lt;/li&gt;&lt;/ul&gt;&lt;/div&gt;" style="rounded=0;whiteSpace=wrap;html=1;fontColor=default;" vertex="1" parent="1">
          <mxGeometry x="120.5" y="80" width="620" height="130" as="geometry" />
        </mxCell>
      </root>
    </mxGraphModel>
  </diagram>
</mxfile>
